<svg width="821" height="752" viewBox="0 0 821 752" fill="none" xmlns="http://www.w3.org/2000/svg">
<g clip-path="url(#clip0)">
<path d="M338.5 619C365.286 619 387 592.585 387 560C387 527.415 365.286 501 338.5 501C311.714 501 290 527.415 290 560C290 592.585 311.714 619 338.5 619Z" fill="#E5E5E5"/>
<path opacity="0.2" d="M303.276 520C298.757 532.971 298.144 547.49 301.546 560.965C304.948 574.439 312.145 585.989 321.848 593.553C331.552 601.116 343.132 604.198 354.517 602.25C365.903 600.301 376.353 593.448 384 582.916C381.24 590.84 377.108 597.934 371.892 603.704C366.675 609.475 360.499 613.785 353.79 616.336C347.082 618.887 340.001 619.618 333.04 618.477C326.078 617.337 319.402 614.353 313.473 609.733C307.545 605.112 302.506 598.965 298.705 591.718C294.905 584.47 292.434 576.295 291.464 567.76C290.494 559.224 291.048 550.532 293.088 542.285C295.127 534.039 298.603 526.435 303.276 520Z" fill="black"/>
<path d="M339.5 560H339.632L342 728H337L339.5 560Z" fill="#CBCBCB"/>
<path d="M424 535C456.033 535 482 503.212 482 464C482 424.788 456.033 393 424 393C391.967 393 366 424.788 366 464C366 503.212 391.967 535 424 535Z" fill="#E5E5E5"/>
<path opacity="0.2" d="M467.216 417C472.659 432.46 473.397 449.766 469.299 465.826C465.202 481.887 456.536 495.654 444.849 504.669C433.163 513.683 419.218 517.358 405.506 515.035C391.794 512.713 379.209 504.544 370 491.99C373.324 501.436 378.3 509.891 384.582 516.769C390.864 523.647 398.302 528.784 406.382 531.825C414.461 534.865 422.988 535.736 431.372 534.377C439.755 533.018 447.796 529.462 454.936 523.954C462.075 518.447 468.144 511.12 472.72 502.482C477.297 493.843 480.273 484.1 481.441 473.926C482.609 463.752 481.942 453.392 479.486 443.562C477.03 433.733 472.843 424.669 467.216 417Z" fill="black"/>
<path d="M424 464H423.842L421 666H427L424 464Z" fill="#CBCBCB"/>
<path d="M315.383 397.625L323 390.105C317.082 389.3 314.651 393.283 313.656 396.435C309.033 394.066 304 397.171 304 397.171L319.241 404C318.472 401.465 317.134 399.254 315.383 397.625Z" fill="#CBCBCB"/>
<path d="M295.982 331.169L304 323.113C297.771 322.25 295.212 326.517 294.164 329.895C289.298 327.357 284 330.683 284 330.683L300.043 338C299.234 335.284 297.825 332.915 295.982 331.169Z" fill="#CBCBCB"/>
<path d="M407.383 374.08L415 367.098C409.082 366.35 406.651 370.048 405.656 372.976C401.033 370.776 396 373.659 396 373.659L411.241 380C410.472 377.646 409.134 375.593 407.383 374.08Z" fill="#CBCBCB"/>
<path d="M363 572C363 572 363.372 558.565 371 560.126L363 572Z" fill="#CBCBCB"/>
<path d="M423 572C423 572 423.419 558.565 432 560.126L423 572Z" fill="#CBCBCB"/>
<path d="M405 572C405 572 405.419 558.565 414 560.126L405 572Z" fill="#CBCBCB"/>
<path d="M346 572C346 572 345.535 558.565 336 560.126L346 572Z" fill="#CBCBCB"/>
<path d="M384 572C384 572 383.535 559.684 374 561.116L384 572Z" fill="#CBCBCB"/>
<path d="M244 663C244 663 244.465 651.804 254 653.105L244 663Z" fill="#CBCBCB"/>
<path d="M305 663C305 663 305.419 651.804 314 653.105L305 663Z" fill="#CBCBCB"/>
<path d="M287 663C287 663 287.465 651.804 297 653.105L287 663Z" fill="#CBCBCB"/>
<path d="M227 663C227 663 226.628 651.804 219 653.105L227 663Z" fill="#CBCBCB"/>
<path d="M265 664C265 664 264.628 652.804 257 654.105L265 664Z" fill="#CBCBCB"/>
<path d="M638 364H557V372H638V364Z" fill="#56403D"/>
<path d="M638 396H557V404H638V396Z" fill="#56403D"/>
<path d="M638 425H557V434H638V425Z" fill="#56403D"/>
<path d="M526 367.5C526 365.226 526.587 363.002 527.685 361.111C528.784 359.22 530.346 357.746 532.173 356.875C534 356.005 536.011 355.777 537.951 356.221C539.891 356.665 541.673 357.76 543.071 359.368C544.47 360.977 545.422 363.026 545.808 365.256C546.194 367.487 545.996 369.8 545.239 371.901C544.482 374.002 543.2 375.798 541.556 377.062C539.911 378.326 537.978 379 536 379C533.349 378.997 530.807 377.784 528.932 375.628C527.057 373.472 526.003 370.549 526 367.5Z" fill="white"/>
<path d="M526 400C526 397.824 526.586 395.698 527.685 393.889C528.784 392.08 530.346 390.67 532.173 389.837C534 389.005 536.011 388.787 537.951 389.211C539.891 389.636 541.673 390.683 543.071 392.222C544.47 393.76 545.422 395.72 545.808 397.854C546.194 399.988 545.996 402.2 545.239 404.21C544.482 406.219 543.2 407.937 541.556 409.146C539.911 410.355 537.978 411 536 411C533.349 410.997 530.807 409.837 528.932 407.775C527.057 405.712 526.003 402.916 526 400Z" fill="white"/>
<path d="M526 430C526 427.824 526.587 425.698 527.685 423.889C528.784 422.08 530.346 420.67 532.173 419.837C534 419.005 536.011 418.787 537.951 419.211C539.891 419.636 541.673 420.683 543.071 422.222C544.47 423.76 545.422 425.72 545.808 427.854C546.194 429.988 545.996 432.2 545.239 434.21C544.482 436.219 543.2 437.937 541.556 439.146C539.911 440.355 537.978 441 536 441C533.349 440.997 530.807 439.837 528.932 437.775C527.057 435.712 526.003 432.916 526 430Z" fill="white"/>
<path d="M446.218 446L445 444.85L476.198 396H517V397.876H476.953L446.218 446Z" fill="#56403D"/>
<path d="M210 468H128V478H210V468Z" fill="#56403D"/>
<path d="M210 502H128V510H210V502Z" fill="#56403D"/>
<path d="M210 531H128V539H210V531Z" fill="#56403D"/>
<path d="M231 485C229.022 485 227.089 484.296 225.444 482.978C223.8 481.659 222.518 479.785 221.761 477.592C221.004 475.399 220.806 472.987 221.192 470.659C221.578 468.331 222.53 466.193 223.929 464.515C225.327 462.836 227.109 461.694 229.049 461.231C230.989 460.768 233 461.005 234.827 461.913C236.654 462.822 238.216 464.36 239.315 466.333C240.414 468.307 241 470.627 241 473C241 474.576 240.741 476.136 240.239 477.592C239.736 479.048 239 480.371 238.071 481.485C237.142 482.6 236.04 483.483 234.827 484.087C233.614 484.69 232.313 485 231 485Z" fill="white"/>
<path d="M231 517C229.022 517 227.089 516.326 225.444 515.062C223.8 513.798 222.518 512.002 221.761 509.901C221.004 507.8 220.806 505.487 221.192 503.256C221.578 501.026 222.53 498.977 223.929 497.368C225.327 495.76 227.109 494.665 229.049 494.221C230.989 493.777 233 494.005 234.827 494.875C236.654 495.746 238.216 497.22 239.315 499.111C240.414 501.002 241 503.226 241 505.5C241 507.01 240.741 508.506 240.239 509.901C239.736 511.296 239 512.564 238.071 513.632C237.142 514.7 236.04 515.547 234.827 516.125C233.614 516.703 232.313 517 231 517H231Z" fill="white"/>
<path d="M231 546C229.022 546 227.089 545.326 225.444 544.062C223.8 542.798 222.518 541.002 221.761 538.901C221.004 536.8 220.806 534.487 221.192 532.256C221.578 530.026 222.53 527.977 223.929 526.368C225.327 524.76 227.109 523.665 229.049 523.221C230.989 522.777 233 523.005 234.827 523.875C236.654 524.746 238.216 526.22 239.315 528.111C240.414 530.002 241 532.226 241 534.5C241 536.01 240.741 537.506 240.239 538.901C239.736 540.296 239 541.564 238.071 542.632C237.142 543.7 236.04 544.547 234.827 545.125C233.614 545.703 232.313 546 231 546H231Z" fill="white"/>
<path d="M319.799 550L289.49 503.801H250V502H290.235L290.463 502.348L321 548.896L319.799 550Z" fill="#56403D"/>
<path d="M492 230H410V238H492V230Z" fill="#56403D"/>
<path d="M492 264H410V272H492V264Z" fill="#56403D"/>
<path d="M492 291H410V301H492V291Z" fill="#56403D"/>
<path d="M379 234.5C379 232.226 379.587 230.002 380.685 228.111C381.784 226.22 383.346 224.746 385.173 223.875C387 223.005 389.011 222.777 390.951 223.221C392.891 223.665 394.673 224.76 396.071 226.368C397.47 227.977 398.422 230.026 398.808 232.256C399.194 234.487 398.996 236.8 398.239 238.901C397.482 241.002 396.2 242.798 394.556 244.062C392.911 245.326 390.978 246 389 246C386.349 245.997 383.807 244.784 381.932 242.628C380.057 240.472 379.003 237.549 379 234.5Z" fill="white"/>
<path d="M379 267C379 264.627 379.586 262.307 380.685 260.333C381.784 258.36 383.346 256.822 385.173 255.913C387 255.005 389.011 254.768 390.951 255.231C392.891 255.694 394.673 256.836 396.071 258.515C397.47 260.193 398.422 262.331 398.808 264.659C399.194 266.987 398.996 269.399 398.239 271.592C397.482 273.785 396.2 275.659 394.556 276.978C392.911 278.296 390.978 279 389 279C386.349 278.996 383.807 277.731 381.932 275.481C380.057 273.232 379.003 270.182 379 267Z" fill="white"/>
<path d="M379 296.5C379 294.226 379.587 292.002 380.685 290.111C381.784 288.22 383.346 286.746 385.173 285.875C387 285.005 389.011 284.777 390.951 285.221C392.891 285.665 394.673 286.76 396.071 288.368C397.47 289.977 398.422 292.026 398.808 294.256C399.194 296.487 398.996 298.8 398.239 300.901C397.482 303.002 396.2 304.798 394.556 306.062C392.911 307.326 390.978 308 389 308C386.349 307.997 383.807 306.784 381.932 304.628C380.057 302.472 379.003 299.549 379 296.5Z" fill="white"/>
<path d="M301.184 312L300 310.896L330.331 264H370V265.801H331.065L301.184 312Z" fill="#56403D"/>
<path d="M5 730.815L14.9654 734L29 684.701L14.2923 680L5 730.815Z" fill="#A0616A"/>
<path d="M0 742.161L3.03195 726L22.3495 732.018C25.6004 733.036 28.4053 735.674 30.1488 739.353C31.8923 743.032 32.4321 747.453 31.6495 751.644L31.5827 752L0 742.161Z" fill="#2F2E41"/>
<path d="M49.0015 740L59.8431 739.999L65 682L49 682.001L49.0015 740Z" fill="#A0616A"/>
<path d="M47 736.001L67.1841 736H67.1847C70.5834 736 73.843 737.648 76.2463 740.583C78.6497 743.517 79.9999 747.496 80 751.646V751.998L47.0006 752L47 736.001Z" fill="#2F2E41"/>
<path d="M46.3264 720L48.0227 629.651L45.7377 593.016L41.2791 621.209L21.796 713.923L5 707.473L24.4521 607.506L20.2272 543.386L32.3654 532L32.5292 532.043L74 543.198L63.982 717.424L46.3264 720Z" fill="#2F2E41"/>
<path d="M62.4792 556C59.1749 556 55.3105 554.442 51.0088 549.996C37.2437 535.774 20.8309 551.074 20.6664 551.229L20 551.863L20.0234 550.7C20.0401 549.871 21.6886 467.507 21.6886 441.004C21.6886 413.622 33.8914 393.629 37.6316 388.154C41.3024 382.779 44.3913 382.898 48.3014 383.047C48.9751 383.072 49.6775 383.099 50.4162 383.099C55.526 383.099 60.4939 390.286 60.7028 390.592L60.8027 390.738L60.8211 390.943L75 547.236L74.8914 547.437C74.8258 547.559 70.1698 556 62.4792 556Z" fill="#CCCCCC"/>
<path d="M71.3002 358.016C76.7778 343.475 73.0952 325.243 63.0748 317.294C53.0545 309.345 40.4909 314.689 35.0132 329.23C29.5356 343.771 33.2182 362.003 43.2386 369.952C53.259 377.901 65.8226 372.557 71.3002 358.016Z" fill="#A0616A"/>
<path d="M84.703 581.348C83.6872 580.241 82.8564 578.836 82.269 577.229C81.6817 575.623 81.3521 573.855 81.3034 572.05C81.2548 570.246 81.4884 568.448 81.9876 566.784C82.4869 565.12 83.2397 563.629 84.193 562.418L72 522L87.965 526.129L97.0961 563.878C98.4376 566.264 99.1098 569.258 98.9854 572.294C98.8609 575.329 97.9485 578.195 96.4209 580.349C94.8933 582.502 92.8567 583.793 90.697 583.977C88.5373 584.161 86.4046 583.226 84.703 581.348Z" fill="#A0616A"/>
<path d="M81.0669 558L59.4698 495.28L50 448.074L50.0075 407.065C50.0289 406.903 52.2551 390.951 60.5065 392.055C67.9886 393.086 72.0184 398.295 73.981 409.47C75.6482 418.964 73.368 447.129 73.1473 449.787C74.595 454.674 96.3155 528.348 92.7196 537.22C92.5851 537.566 92.3891 537.855 92.1512 538.059L96 549.626L81.0669 558Z" fill="#CCCCCC"/>
<path d="M50.1226 355.323C52.5444 355.791 54.3713 352.111 55.2186 348.709C56.0659 345.307 56.7115 341.346 58.817 339.508C61.6937 336.997 65.3743 340.017 68.664 339.189C72.379 338.253 74.7944 332.405 74.9837 326.816C75.1731 321.226 73.6754 315.85 72.206 310.697L71.693 317.102C71.7616 314.931 71.4541 312.77 70.7998 310.827C70.1456 308.883 69.1665 307.221 67.9563 306L68.6175 315.398C68.4768 314.101 68.1651 312.859 67.7002 311.741C67.2354 310.624 66.6266 309.654 65.9088 308.888C65.1909 308.121 64.3782 307.572 63.5172 307.273C62.6563 306.974 61.764 306.93 60.8916 307.144L60.9958 312.744C56.7049 311.986 52.3766 311.227 48.073 311.805C43.7695 312.382 39.4359 314.404 36.1741 318.614C31.2951 324.911 29.5132 335.28 30.1114 344.839C30.7096 354.398 33.3664 363.378 36.1353 372.053C36.8319 374.236 37.7955 376.699 39.411 376.977C40.8625 377.227 42.1906 375.424 42.6419 373.36C42.9895 371.242 42.9761 369.029 42.6027 366.92C42.1944 363.698 41.6798 360.405 42.0637 357.176C42.4475 353.948 44.0113 350.757 46.2026 350.361C48.3938 349.966 50.636 353.686 49.5825 356.567L50.1226 355.323Z" fill="#2F2E41"/>
<path d="M765.78 580.487C765.058 579.375 764.525 578.063 764.219 576.644C763.913 575.224 763.841 573.731 764.009 572.269C764.176 570.808 764.579 569.414 765.188 568.185C765.798 566.957 766.599 565.924 767.536 565.159L762 530L774.875 536.814L778.158 569.157C779.005 571.369 779.222 573.923 778.768 576.336C778.314 578.749 777.22 580.853 775.694 582.249C774.168 583.646 772.316 584.238 770.489 583.913C768.662 583.588 766.986 582.369 765.78 580.487V580.487Z" fill="#FFB8B8"/>
<path d="M764.555 552L764.485 551.659C757.377 517.298 750.029 481.778 741.059 443.104L741 442.85L741.198 442.699C746.198 438.886 753.713 439.14 758.678 443.289C760.926 445.181 762.675 447.931 763.687 451.165C764.7 454.399 764.927 457.961 764.339 461.37L770.882 505.955C773.542 520.528 776.294 535.614 778.925 550.488L779 550.91L778.593 550.944C773.802 551.342 768.853 551.754 764.888 551.981L764.555 552Z" fill="#CCCCCC"/>
<path d="M706 738H697.192L693 691H706V738Z" fill="#FFB8B8"/>
<path d="M711 749H683V748.559C683.003 744.964 684.153 741.518 686.196 738.976C688.239 736.434 691.009 735.004 693.899 735H711L711 749Z" fill="#2F2E41"/>
<path d="M790 728.261L781.497 732L767 688.519L779.55 683L790 728.261Z" fill="#FFB8B8"/>
<path d="M768.612 749L768.506 748.579C767.641 745.14 767.892 741.409 769.204 738.204C770.516 734.999 772.782 732.582 775.504 731.482L791.621 725L795 738.386L768.612 749Z" fill="#2F2E41"/>
<path d="M745 411C754.941 411 763 400.255 763 387C763 373.745 754.941 363 745 363C735.059 363 727 373.745 727 387C727 400.255 735.059 411 745 411Z" fill="#FFB8B8"/>
<path d="M753.997 382.275C754.102 372.711 751.005 363.238 746.216 358.475C743.96 356.164 741.152 354.937 738.274 355.003C735.395 355.068 732.623 356.423 730.431 358.836C725.717 363.815 722.765 373.426 723.015 382.983C733.578 383.022 744.141 383.061 753.997 382.275Z" fill="#2F2E41"/>
<path d="M711.901 723L711.546 722.952C703.863 721.913 695.917 720.84 688.408 720.716L688 720.71L688.056 720.152C689.835 702.392 690.589 683.928 691.318 666.072C692.039 648.441 692.783 630.21 694.518 612.895C695.251 608.258 695.967 603.676 696.679 599.112C702.576 561.335 708.146 525.654 719.644 490.334L719.752 490L720.016 490.044C730.803 491.843 741.169 497.268 749.203 505.319L749.359 505.475L749.351 505.74C749.196 511.226 749.036 516.897 749.273 522.064C752.92 529.047 755.336 537.106 756.33 545.6C757.325 554.094 756.871 562.791 755.003 571.001C758.167 585.573 761.437 600.637 764.774 615.496C772.878 646.118 781.263 677.808 789.859 709.93L790 710.457L789.603 710.585C783.419 712.586 777.039 714.65 770.745 715.451L770.508 715.481L770.395 715.191C754.345 674.022 741.293 630.763 731.429 586.047C729.281 595.076 726.187 603.225 723.189 611.119C720.323 618.299 717.8 625.73 715.638 633.364C714.311 648.379 713.959 664.647 713.619 680.378C713.298 695.253 712.994 709.302 711.94 722.512L711.901 723Z" fill="#2F2E41"/>
<path d="M738.639 358.854C746.235 356.61 754.638 358.745 760.603 365.77C766.568 372.796 769.598 384.95 767.147 395.374C764.696 405.798 756.376 413.132 748.853 410.44C751.008 402.114 748.583 391.892 743.315 387.096C737.067 381.408 735.347 367.83 738.639 358.854Z" fill="#2F2E41"/>
<path d="M748.525 506L748.248 505.824C738.599 499.677 729.137 494.96 720.272 490.656L720.001 490.574L720 489.473L720.176 489.559C720.214 489.445 720.255 489.315 720.297 489.186C720.418 488.812 720.501 488.557 720.571 488.388L720.569 488.387C721.308 486.284 721.896 484.252 722.464 482.286C723.05 480.258 723.655 478.164 724.437 475.948C722.542 473.293 721.244 469.922 720.704 466.25C720.164 462.578 720.406 458.766 721.399 455.283C723.357 448.802 728.35 443.754 733.597 442.916C735.519 435.526 739.803 419.998 739.803 419.998C739.803 419.998 748.81 419.653 752.433 419.011L752.494 419L752.553 419.018C760.462 421.438 767.064 431.888 768.609 444.431C769.913 455.017 767.933 467.125 763.033 478.526C760.52 484.101 757.74 489.434 754.714 494.488C752.507 498.341 750.423 501.981 748.692 505.646L748.525 506Z" fill="#CCCCCC"/>
<path d="M766.946 372.835C761.629 371.739 757.454 364.237 758.058 356.864C758.663 349.491 763.946 343.466 769.306 344.038C774.666 344.61 779.216 351.684 778.992 359.098C778.768 366.511 773.734 374.233 766.946 372.835Z" fill="#2F2E41"/>
<path d="M765.504 368.833C760.466 367.725 756.511 360.14 757.083 352.684C757.333 350.149 758.015 347.747 759.064 345.704C760.114 343.661 761.498 342.043 763.087 341C759.025 342.31 755.528 347.525 755.055 353.68C754.483 361.136 758.438 368.721 763.476 369.829C765.353 370.263 767.276 369.867 769 368.691C767.85 369.047 766.666 369.095 765.504 368.833Z" fill="#2F2E41"/>
<path d="M659.987 499.731C660.523 498.436 661.262 497.315 662.152 496.449C663.041 495.582 664.061 494.991 665.138 494.716C666.215 494.441 667.323 494.489 668.384 494.858C669.446 495.226 670.435 495.906 671.282 496.849L694 478L693.533 496.752L672.031 511.776C670.768 513.599 669.056 514.731 667.219 514.958C665.381 515.185 663.547 514.49 662.062 513.005C660.578 511.52 659.546 509.349 659.164 506.903C658.781 504.456 659.074 501.905 659.987 499.731V499.731Z" fill="#FFB8B8"/>
<path d="M678 489.528L678.217 489.327C700.099 469.078 722.719 448.146 747.033 424.157L747.192 424L747.363 424.194C751.673 429.095 753.938 438.459 752.631 445.976C752.03 449.383 750.663 452.46 748.715 454.79C746.767 457.12 744.333 458.591 741.742 459.002L712.478 481.966C703.081 490.117 693.355 498.552 683.738 506.767L683.465 507L683.309 506.508C681.47 500.726 679.571 494.752 678.122 489.932L678 489.528Z" fill="#CCCCCC"/>
<path d="M690.874 300.781L619.647 284.351L618.721 284.138C618.25 284.028 617.759 284.063 617.306 284.239C616.852 284.414 616.454 284.723 616.157 285.13C615.86 285.536 615.677 286.024 615.628 286.537C615.579 287.051 615.667 287.568 615.88 288.031L644.16 349.444C644.343 349.838 644.612 350.18 644.945 350.44C645.277 350.7 645.663 350.871 646.07 350.939C646.478 351.007 646.896 350.967 647.287 350.824C647.678 350.681 648.03 350.438 648.313 350.116L667.956 327.968C668.096 327.807 668.265 327.678 668.454 327.59C668.642 327.502 668.846 327.456 669.052 327.456C669.331 327.452 669.607 327.529 669.849 327.68C670.09 327.83 670.289 328.048 670.424 328.31L674.448 336.268C674.705 336.799 675.12 337.222 675.628 337.471C676.136 337.72 676.707 337.78 677.251 337.642L677.271 337.637C677.821 337.512 678.316 337.193 678.676 336.732C679.036 336.27 679.241 335.692 679.257 335.091L680.063 316.721C680.072 316.492 680.126 316.267 680.22 316.061C680.321 315.857 680.458 315.676 680.624 315.528L691.956 305.58C692.328 305.254 692.607 304.821 692.76 304.332C692.914 303.844 692.935 303.319 692.822 302.818C692.709 302.317 692.466 301.86 692.122 301.5C691.777 301.14 691.345 300.891 690.874 300.781H690.874ZM691.309 304.735L679.977 314.682C679.829 314.809 679.695 314.954 679.578 315.113L619.518 285.986C619.465 285.959 619.41 285.939 619.353 285.924C619.122 285.86 618.876 285.885 618.66 285.994C618.444 286.103 618.27 286.289 618.168 286.521C618.067 286.753 618.044 287.015 618.104 287.263C618.165 287.51 618.304 287.727 618.498 287.877L667.881 326.668C667.63 326.807 667.404 326.991 667.212 327.213L647.57 349.361C647.399 349.552 647.188 349.697 646.954 349.783C646.72 349.869 646.47 349.893 646.225 349.854C645.981 349.814 645.748 349.712 645.549 349.556C645.349 349.4 645.187 349.194 645.078 348.957L616.798 287.544C616.671 287.267 616.62 286.957 616.65 286.65C616.681 286.343 616.791 286.051 616.969 285.808C617.146 285.565 617.384 285.38 617.656 285.274C617.927 285.169 618.22 285.147 618.503 285.211L619.45 285.43L690.655 301.854C690.938 301.92 691.197 302.069 691.404 302.285C691.612 302.501 691.758 302.775 691.826 303.075C691.894 303.376 691.882 303.691 691.79 303.985C691.699 304.278 691.532 304.538 691.309 304.735Z" fill="white"/>
<path d="M690.874 300.781L619.647 284.351L618.721 284.138C618.25 284.028 617.759 284.063 617.306 284.239C616.852 284.414 616.454 284.723 616.157 285.13C615.86 285.536 615.677 286.024 615.628 286.537C615.579 287.051 615.667 287.568 615.88 288.031L644.16 349.444C644.343 349.838 644.612 350.18 644.945 350.44C645.277 350.7 645.663 350.871 646.07 350.939C646.478 351.007 646.896 350.967 647.287 350.824C647.678 350.681 648.03 350.438 648.313 350.116L667.956 327.968C668.096 327.807 668.265 327.678 668.454 327.59C668.642 327.502 668.846 327.456 669.052 327.456C669.331 327.452 669.607 327.529 669.849 327.68C670.09 327.83 670.289 328.048 670.424 328.31L674.448 336.268C674.705 336.799 675.12 337.222 675.628 337.471C676.136 337.72 676.707 337.78 677.251 337.642L677.271 337.637C677.821 337.512 678.316 337.193 678.676 336.732C679.036 336.27 679.241 335.692 679.257 335.091L680.063 316.721C680.072 316.492 680.126 316.267 680.22 316.061C680.321 315.857 680.458 315.676 680.624 315.528L691.956 305.58C692.328 305.254 692.607 304.821 692.76 304.332C692.914 303.844 692.935 303.319 692.822 302.818C692.709 302.317 692.466 301.86 692.122 301.5C691.777 301.14 691.345 300.891 690.874 300.781H690.874ZM691.309 304.735L679.977 314.682C679.829 314.809 679.695 314.954 679.578 315.113C679.472 315.255 679.381 315.408 679.305 315.57C679.226 315.737 679.164 315.911 679.119 316.091L679.121 316.097C679.074 316.284 679.047 316.477 679.04 316.671L678.234 335.041C678.227 335.402 678.106 335.75 677.89 336.028C677.673 336.305 677.375 336.496 677.044 336.568L677.034 336.571C676.708 336.657 676.364 336.623 676.058 336.475C675.752 336.326 675.502 336.071 675.348 335.752L671.324 327.789C671.117 327.379 670.815 327.033 670.447 326.783C670.08 326.533 669.658 326.388 669.224 326.361L669.219 326.362C669.16 326.359 669.102 326.356 669.045 326.358C668.639 326.359 668.239 326.465 667.881 326.668C667.63 326.807 667.404 326.991 667.212 327.213L647.57 349.361C647.399 349.552 647.188 349.697 646.954 349.783C646.72 349.869 646.47 349.893 646.225 349.854C645.981 349.814 645.749 349.712 645.549 349.556C645.349 349.4 645.187 349.194 645.078 348.957L616.798 287.544C616.671 287.267 616.62 286.957 616.65 286.65C616.681 286.343 616.791 286.051 616.969 285.808C617.146 285.565 617.384 285.38 617.656 285.274C617.927 285.169 618.22 285.147 618.503 285.211L619.45 285.43L690.655 301.854C690.938 301.92 691.197 302.069 691.404 302.285C691.612 302.501 691.758 302.775 691.826 303.075C691.894 303.376 691.882 303.691 691.79 303.985C691.699 304.278 691.532 304.538 691.309 304.735Z" fill="#56403D"/>
<path d="M679.805 315.222L679.382 316.22L679.12 316.097L679.119 316.091L619.107 286.992L669.219 326.362L669.224 326.361L669.356 326.47L668.752 327.353L667.881 326.668L618.498 287.877C618.304 287.727 618.165 287.51 618.105 287.263C618.044 287.015 618.067 286.753 618.168 286.521C618.27 286.289 618.444 286.103 618.66 285.994C618.877 285.885 619.122 285.86 619.353 285.924C619.41 285.939 619.465 285.959 619.518 285.986L679.578 315.113L679.805 315.222Z" fill="#56403D"/>
<path d="M83.8433 178.28C81.6833 179.528 79.3313 180.008 76.9313 180.008C69.8273 180.008 64.7873 175.016 64.7873 168.2C64.7873 161.24 69.8273 156.392 76.9793 156.392C80.5793 156.392 83.6033 157.592 86.2433 160.232L90.1793 156.392C87.0113 152.792 82.3073 150.92 76.6913 150.92C66.1793 150.92 58.4993 158.168 58.4993 168.2C58.4993 178.232 66.1793 185.48 76.5953 185.48C81.3473 185.48 86.2433 184.04 89.7473 181.208V167.816H83.8433V178.28ZM103.113 163.112V159.368H97.4015V185H103.401V172.568C103.401 167.336 106.281 164.648 110.841 164.648C111.273 164.648 111.705 164.696 112.233 164.792V159.08C107.961 159.08 104.841 160.424 103.113 163.112ZM141.185 172.328C141.185 164.312 135.713 159.08 128.225 159.08C120.593 159.08 114.977 164.552 114.977 172.184C114.977 179.816 120.545 185.336 129.137 185.336C133.553 185.336 137.153 183.896 139.457 181.16L136.241 177.464C134.417 179.336 132.161 180.248 129.281 180.248C124.817 180.248 121.697 177.848 120.977 174.104H141.089C141.137 173.528 141.185 172.808 141.185 172.328ZM128.225 163.88C132.161 163.88 134.993 166.424 135.473 170.12H120.929C121.505 166.376 124.337 163.88 128.225 163.88ZM171.044 172.328C171.044 164.312 165.572 159.08 158.084 159.08C150.452 159.08 144.836 164.552 144.836 172.184C144.836 179.816 150.404 185.336 158.996 185.336C163.412 185.336 167.012 183.896 169.316 181.16L166.1 177.464C164.276 179.336 162.02 180.248 159.14 180.248C154.676 180.248 151.556 177.848 150.836 174.104H170.948C170.996 173.528 171.044 172.808 171.044 172.328ZM158.084 163.88C162.02 163.88 164.852 166.424 165.332 170.12H150.788C151.364 166.376 154.196 163.88 158.084 163.88ZM191.352 159.08C187.608 159.08 184.488 160.328 182.52 162.68V159.368H176.808V185H182.808V172.04C182.808 166.904 185.688 164.312 189.96 164.312C193.8 164.312 196.056 166.52 196.056 171.08V185H202.056V170.312C202.056 162.584 197.496 159.08 191.352 159.08ZM239.061 185.48C244.581 185.48 249.285 183.512 252.405 179.864L248.373 176.024C245.925 178.712 242.901 180.008 239.397 180.008C232.437 180.008 227.397 175.112 227.397 168.2C227.397 161.288 232.437 156.392 239.397 156.392C242.901 156.392 245.925 157.688 248.373 160.328L252.405 156.536C249.285 152.888 244.581 150.92 239.109 150.92C228.789 150.92 221.109 158.168 221.109 168.2C221.109 178.232 228.789 185.48 239.061 185.48ZM268.39 185.336C276.358 185.336 282.07 179.864 282.07 172.184C282.07 164.504 276.358 159.08 268.39 159.08C260.518 159.08 254.758 164.504 254.758 172.184C254.758 179.864 260.518 185.336 268.39 185.336ZM268.39 180.2C264.07 180.2 260.806 177.08 260.806 172.184C260.806 167.288 264.07 164.168 268.39 164.168C272.758 164.168 276.022 167.288 276.022 172.184C276.022 177.08 272.758 180.2 268.39 180.2ZM320.16 159.08C316.08 159.08 312.624 160.712 310.56 163.352C308.784 160.472 305.664 159.08 301.92 159.08C298.416 159.08 295.44 160.328 293.52 162.632V159.368H287.808V185H293.808V171.992C293.808 166.904 296.496 164.312 300.48 164.312C304.128 164.312 306.24 166.52 306.24 171.08V185H312.24V171.992C312.24 166.904 314.976 164.312 318.912 164.312C322.56 164.312 324.672 166.52 324.672 171.08V185H330.672V170.312C330.672 162.584 326.352 159.08 320.16 159.08ZM370.691 159.08C366.611 159.08 363.155 160.712 361.091 163.352C359.315 160.472 356.195 159.08 352.451 159.08C348.947 159.08 345.971 160.328 344.051 162.632V159.368H338.339V185H344.339V171.992C344.339 166.904 347.027 164.312 351.011 164.312C354.659 164.312 356.771 166.52 356.771 171.08V185H362.771V171.992C362.771 166.904 365.507 164.312 369.443 164.312C373.091 164.312 375.203 166.52 375.203 171.08V185H381.203V170.312C381.203 162.584 376.883 159.08 370.691 159.08ZM407.686 159.368V172.328C407.686 177.464 404.854 180.056 400.678 180.056C396.886 180.056 394.678 177.848 394.678 173.192V159.368H388.678V174.008C388.678 181.736 393.142 185.336 399.718 185.336C403.03 185.336 406.054 184.088 407.974 181.736V185H413.686V159.368H407.686ZM436.086 159.08C432.342 159.08 429.222 160.328 427.254 162.68V159.368H421.542V185H427.542V172.04C427.542 166.904 430.422 164.312 434.694 164.312C438.534 164.312 440.79 166.52 440.79 171.08V185H446.79V170.312C446.79 162.584 442.23 159.08 436.086 159.08ZM457.425 155.144C459.681 155.144 461.265 153.512 461.265 151.4C461.265 149.432 459.633 147.944 457.425 147.944C455.217 147.944 453.585 149.528 453.585 151.544C453.585 153.56 455.217 155.144 457.425 155.144ZM454.401 185H460.401V159.368H454.401V185ZM480.036 185.336C485.028 185.336 489.012 183.176 490.98 179.336L486.372 176.648C484.836 179.096 482.532 180.2 479.988 180.2C475.572 180.2 472.212 177.176 472.212 172.184C472.212 167.24 475.572 164.168 479.988 164.168C482.532 164.168 484.836 165.272 486.372 167.72L490.98 165.032C489.012 161.144 485.028 159.08 480.036 159.08C471.924 159.08 466.164 164.504 466.164 172.184C466.164 179.864 471.924 185.336 480.036 185.336ZM505.959 159.08C501.831 159.08 497.847 160.136 495.111 162.248L497.463 166.616C499.383 165.032 502.359 164.072 505.239 164.072C509.511 164.072 511.623 166.136 511.623 169.64V170.024H504.999C497.223 170.024 494.343 173.384 494.343 177.656C494.343 182.12 498.039 185.336 503.895 185.336C507.735 185.336 510.519 184.088 511.959 181.88V185H517.623V169.976C517.623 162.584 513.351 159.08 505.959 159.08ZM505.143 180.968C502.071 180.968 500.247 179.576 500.247 177.416C500.247 175.544 501.351 174.008 505.431 174.008H511.623V176.984C510.615 179.624 508.071 180.968 505.143 180.968ZM539.051 179.336C538.139 180.056 536.939 180.392 535.691 180.392C533.387 180.392 532.139 179.048 532.139 176.552V164.36H539.003V159.56H532.139V153.704H526.139V159.56H521.915V164.36H526.139V176.696C526.139 182.36 529.355 185.336 534.971 185.336C537.131 185.336 539.291 184.76 540.731 183.608L539.051 179.336ZM548.691 155.144C550.947 155.144 552.531 153.512 552.531 151.4C552.531 149.432 550.899 147.944 548.691 147.944C546.483 147.944 544.851 149.528 544.851 151.544C544.851 153.56 546.483 155.144 548.691 155.144ZM545.667 185H551.667V159.368H545.667V185ZM571.062 185.336C579.03 185.336 584.742 179.864 584.742 172.184C584.742 164.504 579.03 159.08 571.062 159.08C563.19 159.08 557.43 164.504 557.43 172.184C557.43 179.864 563.19 185.336 571.062 185.336ZM571.062 180.2C566.742 180.2 563.478 177.08 563.478 172.184C563.478 167.288 566.742 164.168 571.062 164.168C575.43 164.168 578.694 167.288 578.694 172.184C578.694 177.08 575.43 180.2 571.062 180.2ZM605.024 159.08C601.28 159.08 598.16 160.328 596.192 162.68V159.368H590.48V185H596.48V172.04C596.48 166.904 599.36 164.312 603.632 164.312C607.472 164.312 609.728 166.52 609.728 171.08V185H615.728V170.312C615.728 162.584 611.168 159.08 605.024 159.08ZM71.3153 244.48C80.5313 244.48 84.8993 239.872 84.8993 234.496C84.8993 222.16 64.9793 226.816 64.9793 219.664C64.9793 217.12 67.0913 215.104 72.2753 215.104C75.2033 215.104 78.5153 215.968 81.5393 217.744L83.5073 212.896C80.5793 210.976 76.3553 209.92 72.3233 209.92C63.1073 209.92 58.7873 214.528 58.7873 219.952C58.7873 232.432 78.7553 227.68 78.7553 234.928C78.7553 237.424 76.5473 239.296 71.3153 239.296C67.1873 239.296 62.9153 237.76 60.2273 235.6L58.0673 240.448C60.8513 242.848 66.0833 244.48 71.3153 244.48ZM108.282 218.368L100.17 237.328L92.1061 218.368H85.8661L97.0501 244.096L96.6181 245.104C95.4661 247.648 94.2181 248.656 92.1061 248.656C90.4741 248.656 88.8421 247.984 87.6901 246.88L85.2901 251.296C86.9221 252.784 89.6101 253.648 92.1541 253.648C96.4261 253.648 99.6901 251.872 102.042 246.064L114.042 218.368H108.282ZM125.384 244.336C132.584 244.336 137 241.216 137 236.416C137 226.384 121.16 230.992 121.16 225.808C121.16 224.128 122.888 222.928 126.536 222.928C128.984 222.928 131.432 223.408 133.88 224.848L136.184 220.288C133.88 218.896 129.992 218.08 126.584 218.08C119.672 218.08 115.304 221.248 115.304 226.096C115.304 236.32 131.144 231.712 131.144 236.608C131.144 238.384 129.56 239.44 125.768 239.44C122.552 239.44 119.096 238.384 116.84 236.896L114.536 241.456C116.84 243.088 121.112 244.336 125.384 244.336ZM155.895 238.336C154.983 239.056 153.783 239.392 152.535 239.392C150.231 239.392 148.983 238.048 148.983 235.552V223.36H155.847V218.56H148.983V212.704H142.983V218.56H138.759V223.36H142.983V235.696C142.983 241.36 146.199 244.336 151.815 244.336C153.975 244.336 156.135 243.76 157.575 242.608L155.895 238.336ZM185.763 231.328C185.763 223.312 180.291 218.08 172.803 218.08C165.171 218.08 159.555 223.552 159.555 231.184C159.555 238.816 165.123 244.336 173.715 244.336C178.131 244.336 181.731 242.896 184.035 240.16L180.819 236.464C178.995 238.336 176.739 239.248 173.859 239.248C169.395 239.248 166.275 236.848 165.555 233.104H185.667C185.715 232.528 185.763 231.808 185.763 231.328ZM172.803 222.88C176.739 222.88 179.571 225.424 180.051 229.12H165.507C166.083 225.376 168.915 222.88 172.803 222.88ZM223.878 218.08C219.798 218.08 216.342 219.712 214.278 222.352C212.502 219.472 209.382 218.08 205.638 218.08C202.134 218.08 199.158 219.328 197.238 221.632V218.368H191.526V244H197.526V230.992C197.526 225.904 200.214 223.312 204.198 223.312C207.846 223.312 209.958 225.52 209.958 230.08V244H215.958V230.992C215.958 225.904 218.694 223.312 222.63 223.312C226.278 223.312 228.39 225.52 228.39 230.08V244H234.39V229.312C234.39 221.584 230.07 218.08 223.878 218.08ZM255.899 244H279.707V238.72H262.139V210.4H255.899V244ZM294.084 218.08C289.956 218.08 285.972 219.136 283.236 221.248L285.588 225.616C287.508 224.032 290.484 223.072 293.364 223.072C297.636 223.072 299.748 225.136 299.748 228.64V229.024H293.124C285.348 229.024 282.468 232.384 282.468 236.656C282.468 241.12 286.164 244.336 292.02 244.336C295.86 244.336 298.644 243.088 300.084 240.88V244H305.748V228.976C305.748 221.584 301.476 218.08 294.084 218.08ZM293.268 239.968C290.196 239.968 288.372 238.576 288.372 236.416C288.372 234.544 289.476 233.008 293.556 233.008H299.748V235.984C298.74 238.624 296.196 239.968 293.268 239.968ZM327.656 218.08C324.392 218.08 321.512 219.184 319.448 221.488V208.384H313.448V244H319.16V240.688C321.176 243.136 324.152 244.336 327.656 244.336C335.144 244.336 340.664 239.152 340.664 231.184C340.664 223.216 335.144 218.08 327.656 218.08ZM326.984 239.2C322.664 239.2 319.352 236.08 319.352 231.184C319.352 226.288 322.664 223.168 326.984 223.168C331.304 223.168 334.568 226.288 334.568 231.184C334.568 236.08 331.304 239.2 326.984 239.2Z" fill="white"/>
</g>
<defs>
<clipPath id="clip0">
<rect width="821" height="752" fill="white"/>
</clipPath>
</defs>
</svg>
